<svg width="370" height="76" viewBox="0 0 370 76" fill="none" xmlns="http://www.w3.org/2000/svg">
<path d="M37.32 0H15.56V1.86H22.49V38C22.49 48.85 19.49 51.91 12.77 51.91C8.55 51.91 7.86 48.7 7.86 47.04C7.86 43.09 7.64 40.68 4.04 40.68C0.44 40.68 0 44.3 0 45.41C0 50.41 2.21 54.19 12.09 54.19C23.87 54.19 30.16 50.19 30.16 37.01V1.85H37.32V0Z" fill="white"/>
<path d="M40.24 45.81C39.6816 45.8073 39.1282 45.9155 38.612 46.1283C38.0957 46.3411 37.6268 46.6542 37.2324 47.0495C36.838 47.4448 36.526 47.9144 36.3145 48.4312C36.1029 48.948 35.996 49.5016 36 50.06C35.9809 50.6223 36.0846 51.182 36.304 51.7001C36.5233 52.2183 36.853 52.6823 37.27 53.06C37.6605 53.4577 38.1279 53.7719 38.6436 53.9833C39.1593 54.1948 39.7127 54.2991 40.27 54.29C40.8372 54.2887 41.3983 54.1739 41.9204 53.9523C42.4425 53.7308 42.915 53.407 43.31 53C43.7208 52.6184 44.0449 52.1532 44.2606 51.6356C44.4762 51.1181 44.5783 50.5604 44.56 50C44.5683 49.441 44.4616 48.8862 44.2466 48.3702C44.0316 47.8541 43.7128 47.3877 43.31 47C42.9098 46.5963 42.4306 46.2796 41.9023 46.0697C41.374 45.8598 40.8081 45.7611 40.24 45.78" fill="white"/>
<path d="M88.57 45.81C88.0084 45.7992 87.4505 45.9016 86.9294 46.1112C86.4083 46.3209 85.9348 46.6333 85.5372 47.03C85.1396 47.4267 84.826 47.8995 84.6151 48.4201C84.4043 48.9407 84.3005 49.4984 84.31 50.06C84.2879 50.619 84.3862 51.1762 84.5985 51.6939C84.8107 52.2115 85.1318 52.6774 85.54 53.06C86.3614 53.849 87.4561 54.2896 88.595 54.2896C89.7339 54.2896 90.8287 53.849 91.65 53.06C92.0629 52.6801 92.3885 52.2151 92.6043 51.6972C92.8201 51.1793 92.921 50.6207 92.9 50.06C92.9102 49.5016 92.8054 48.9471 92.592 48.431C92.3787 47.9149 92.0615 47.4482 91.66 47.06C91.2543 46.6582 90.7712 46.3428 90.2401 46.1331C89.709 45.9234 89.1408 45.8237 88.57 45.84" fill="white"/>
<path d="M73.41 0H52.1V1.86H58.36V43.05C58.36 46.29 58.16 47.13 57.8 48.05C57.5666 48.6091 57.218 49.1126 56.7769 49.5279C56.3358 49.9432 55.8121 50.2608 55.24 50.46C53.8337 50.9369 52.3546 51.1637 50.87 51.13V52.84H73.81V51.17C72.3206 51.1838 70.8376 50.9748 69.41 50.55C68.8172 50.3603 68.2712 50.0476 67.8076 49.6323C67.344 49.217 66.9734 48.7085 66.72 48.14C66.2864 47.0717 66.0918 45.9215 66.15 44.77V30.66H71.82C88.3 30.66 92.93 24.16 92.93 15.28C92.93 6.4 90.1 0 73.41 0ZM70.5 28.62H66.15V2.1L70.09 2C82.8 2 85.58 7.27 85.58 15.75C85.58 24.23 80.58 28.62 70.5 28.62" fill="white"/>
<path d="M160.9 47.93C160.563 46.7608 160.411 45.5461 160.45 44.33V1.86C160.45 1.86 166.04 1.86 165.97 1.81C165.94 1.24706 165.94 0.682929 165.97 0.119995H152.45L136.29 40.39C136.258 40.4627 136.205 40.5244 136.139 40.5678C136.072 40.6112 135.994 40.6342 135.915 40.6342C135.836 40.6342 135.758 40.6112 135.691 40.5678C135.625 40.5244 135.572 40.4627 135.54 40.39C135.54 40.39 118.53 0.609995 118.34 0.119995H103.34V1.83H109.85V42.73L109.71 46.46C109.631 47.3741 109.325 48.2541 108.82 49.02C108.227 49.8395 107.38 50.4406 106.41 50.73C105.412 51.0153 104.378 51.1568 103.34 51.15V52.86H118.23V51.18C117.362 51.1759 116.501 51.0307 115.68 50.75C114.695 50.4805 113.829 49.889 113.22 49.07C112.709 48.2868 112.397 47.391 112.31 46.46C112.31 46.46 112.14 42.74 112.14 42.73V7.4H113C113 7.4 132.26 52.4 132.46 52.86H134.07L152.3 7.86H152.76V44.33C152.796 45.5795 152.641 46.8272 152.3 48.03C152.111 48.5735 151.813 49.0729 151.424 49.4975C151.036 49.9221 150.565 50.2632 150.04 50.5C148.825 50.9406 147.542 51.1607 146.25 51.15V52.86H167.04V51.15C165.733 51.144 164.437 50.9105 163.21 50.46C162.668 50.2244 162.181 49.8774 161.781 49.4415C161.381 49.0057 161.078 48.4907 160.89 47.93" fill="white"/>
<path d="M188.85 14.14C177.76 14.14 170.85 21.5 170.85 34.34C170.85 53.16 185.5 54.41 188.65 54.41C194.92 54.41 206.78 50.5 206.78 33.99C206.78 21.13 199.2 14.14 188.9 14.14H188.85ZM188.76 52.07C180.42 52.07 179.13 47.9 179.13 34.55C179.13 24.23 179.78 16.48 188.76 16.48C198.46 16.48 198.51 24.48 198.51 33.9C198.51 47.41 196.2 52.07 188.76 52.07Z" fill="white"/>
<path d="M235.75 14.72C229.12 14.72 227.05 18.64 225.22 22.63C225.047 22.6196 224.873 22.6196 224.7 22.63C224.64 22.63 223.75 16.82 223.41 15.1H210.56V17.1H217.51C217.51 17.1 217.51 23 217.51 25.1V43.13C217.632 44.9993 217.346 46.8728 216.67 48.62C215.96 49.91 214.36 50.55 211.72 50.55H210.6V52.86H232.12V50.55H230.97C228.14 50.55 226.92 49.94 226.16 48.72C225.4 47.5 225.16 45.81 225.16 43.13V29.58C225.16 25.01 228.6 19.81 232.73 19.81C237.04 19.81 236.93 26.45 241.82 23.81C244.48 22.36 244.03 14.75 235.82 14.75" fill="white"/>
<path d="M321.48 49C319.18 49 318.48 47.72 318.28 45.59L318.14 40.75V24.91C318.14 21.5 317.59 19.2 315.58 17.19C313.57 15.18 309.76 14.14 304.21 14.14C298.88 14.14 294.93 15.14 292.41 17.06C289.89 18.98 289 20.66 289 23.13C288.954 23.5918 289.016 24.0579 289.181 24.4917C289.346 24.9255 289.609 25.3152 289.95 25.63C290.595 26.2031 291.438 26.5042 292.3 26.47C294.43 26.47 295.64 25.39 296.08 22.57C296.186 20.9568 296.822 19.424 297.89 18.21C298.99 17.06 300.71 16.48 303.03 16.48C305.72 16.48 307.64 17.21 308.7 18.66C309.775 20.2938 310.303 22.2266 310.21 24.18V30.51C303.31 31.14 287.03 32.44 287.76 44.84C287.972 47.3579 289.129 49.7021 290.999 51.4014C292.869 53.1007 295.313 54.0291 297.84 54C303.95 54 307.84 50.52 310.44 47.73C310.765 49.4136 311.683 50.9246 313.029 51.9874C314.374 53.0503 316.057 53.5942 317.77 53.52C322.77 53.52 325.77 51.07 326.12 44.93H324.83C324.5 47.6 322.83 49.03 321.48 49.03V49ZM310.21 45.03C310.22 45.0872 310.213 45.146 310.189 45.1993C310.166 45.2525 310.128 45.2979 310.08 45.33L309.92 45.48C306.23 48.83 303.41 50.02 301.36 50.02C296.08 50.02 295.29 45.63 295.29 43.43C295.29 36.43 304.93 32.88 310.21 32.88V45.03Z" fill="white"/>
<path d="M365.61 48.72C364.619 47.0233 364.149 45.072 364.26 43.11L364.36 25.99C364.468 23.8084 364.035 21.634 363.1 19.66C362.216 18.0214 360.857 16.6894 359.2 15.84C357.431 14.9829 355.485 14.5547 353.52 14.59C345.96 14.59 342.92 19.2 341.27 21.92H340.58L339.23 15H327.53V17C329.73 17.09 333.39 17.13 333.39 17.13V43.13C333.446 44.621 333.292 46.1124 332.93 47.56C332.792 48.1077 332.523 48.6139 332.147 49.0353C331.771 49.4568 331.299 49.7809 330.77 49.98C329.727 50.3374 328.632 50.5198 327.53 50.52V52.9H346.13V50.5C344.26 50.35 342.99 49.84 342.33 48.89C341.67 47.94 341.27 46.11 341.27 43.54V33.54C341.27 29.37 341.27 25.33 342.67 22.84C343.423 21.5256 344.518 20.4395 345.839 19.6966C347.159 18.9537 348.656 18.5817 350.17 18.62C353 18.62 354.49 19.53 355.43 21.33C356.19 22.79 356.69 27.14 356.69 30.14L356.59 42.5C356.59 44.57 356.85 46.09 356.69 47.07C356.614 47.5943 356.43 48.0971 356.149 48.5464C355.869 48.9957 355.498 49.3818 355.06 49.68C354.142 50.1882 353.11 50.4565 352.06 50.46V52.88H370V50.48C367.73 50.33 366.25 49.78 365.6 48.72" fill="white"/>
<path d="M281.38 12.62C280.27 12.97 279.54 13.96 279.15 15.62C278.76 17.28 278.27 18.04 277.5 18.29C276.606 18.5098 275.665 18.4433 274.81 18.1C272.89 16.31 269.19 14.1 262.68 14.1C252.2 14.1 247.58 21.57 247.58 28.38C247.58 36.38 250.65 40.21 257.39 41.63C257.8 41.71 257.8 42.17 257.44 42.25C251.7 43.41 246.6 45.09 246.6 50.56C246.562 51.9037 246.962 53.2232 247.74 54.3199C248.517 55.4165 249.63 56.2308 250.91 56.64C253.58 57.73 257.33 58.29 262.05 58.38C265.035 58.3679 268.019 58.5081 270.99 58.8C272.739 58.9292 274.424 59.5117 275.88 60.49C276.511 60.9893 277.013 61.6337 277.342 62.3684C277.671 63.1031 277.818 63.9064 277.77 64.71C277.77 67.24 276.42 69.27 273.77 70.78C271.26 72.18 267.83 72.91 263.56 72.91C259.91 72.91 256.92 72.51 254.21 70.83C253.355 70.2439 252.703 69.4065 252.345 68.4337C251.986 67.4609 251.939 66.4007 252.21 65.4C252.59 63.63 251.95 61.76 249.9 61.4C249.282 61.3259 248.656 61.4217 248.088 61.6772C247.521 61.9328 247.034 62.3382 246.68 62.85C246.067 63.8924 245.775 65.0924 245.84 66.3C245.84 70.8 249.32 72.9 251.97 73.68C255.345 74.7653 258.876 75.2823 262.42 75.21C267.36 75.21 271.36 74.45 274.23 73C276.705 71.9094 278.778 70.0742 280.16 67.75C281.219 65.8717 281.787 63.7563 281.81 61.6C281.923 59.2846 281.311 56.9916 280.06 55.04C276.31 49.94 271 50.6 259 50C253.25 50 252.14 49 252.14 47.19C252.14 44.6 254.27 43.58 262.59 42.3C270.91 41.02 278.42 38.02 278.42 28.02C278.451 25.6057 277.966 23.2126 277 21C278.55 21.3903 280.177 21.3558 281.71 20.9C282.408 20.7316 283.066 20.4232 283.641 19.9935C284.217 19.5638 284.7 19.0217 285.06 18.4C285.358 17.9028 285.549 17.3491 285.621 16.7741C285.693 16.1992 285.645 15.6154 285.48 15.06C284.78 12.82 283.48 12.06 281.4 12.65L281.38 12.62ZM262.9 40.19C258.01 40.19 255.21 38.41 255.21 28.45C255.21 21.45 257.66 16.2 262.9 16.2C269 16.2 270.79 20.96 270.79 28.3C270.79 38.81 267.48 40.19 262.9 40.19Z" fill="white"/>
</svg>
