<svg xmlns="http://www.w3.org/2000/svg" viewBox="0 0 370.01 75.26"><defs><style>.cls-1{fill:#5c351c;}</style></defs><title>Asset 1</title><g id="Layer_2" data-name="Layer 2"><g id="Layer_1-2" data-name="Layer 1"><path class="cls-1" d="M37.32,0H15.56V1.86h6.93V38c0,10.85-3,13.91-9.72,13.91-4.22,0-4.91-3.21-4.91-4.87,0-3.95-.22-6.36-3.82-6.36S0,44.3,0,45.41c0,5,2.21,8.78,12.09,8.78,11.78,0,18.07-4,18.07-17.18V1.85h7.16Z"/><path class="cls-1" d="M40.24,45.81A4.22,4.22,0,0,0,36,50.06a3.87,3.87,0,0,0,1.27,3,4.11,4.11,0,0,0,3,1.23A4.25,4.25,0,0,0,43.31,53a3.92,3.92,0,0,0,1.25-3,4.08,4.08,0,0,0-1.25-3,4.13,4.13,0,0,0-3.07-1.22"/><path class="cls-1" d="M88.57,45.81a4.18,4.18,0,0,0-4.26,4.25,3.9,3.9,0,0,0,1.23,3,4.41,4.41,0,0,0,6.11,0,3.88,3.88,0,0,0,1.25-3,4.07,4.07,0,0,0-1.24-3,4.22,4.22,0,0,0-3.09-1.22"/><path class="cls-1" d="M73.41,0H52.1V1.86h6.26V43.05c0,3.24-.2,4.08-.56,5a4.31,4.31,0,0,1-2.56,2.41,12.71,12.71,0,0,1-4.37.67v1.71H73.81V51.17a14.94,14.94,0,0,1-4.4-.62,4.42,4.42,0,0,1-2.69-2.41,7.9,7.9,0,0,1-.57-3.37V30.66l5.67,0c16.48,0,21.11-6.5,21.11-15.38S90.1,0,73.41,0M70.5,28.62H66.15V2.1L70.09,2C82.8,2,85.58,7.27,85.58,15.75s-5,12.87-15.08,12.87"/><path class="cls-1" d="M160.9,47.93a11.66,11.66,0,0,1-.45-3.6V1.86s5.59,0,5.52-.05a15.88,15.88,0,0,1,0-1.69H152.45L136.29,40.39a.41.41,0,0,1-.75,0S118.53.61,118.34.12h-15V1.83h6.51v40.9l-.14,3.73a5.51,5.51,0,0,1-.89,2.56,4.6,4.6,0,0,1-2.41,1.71,10.91,10.91,0,0,1-3.07.42v1.71h14.89V51.18a8,8,0,0,1-2.55-.43,4.57,4.57,0,0,1-2.46-1.68,5.76,5.76,0,0,1-.91-2.61s-.17-3.72-.17-3.73V7.4H113s19.26,45,19.46,45.46h1.61l18.23-45h.46V44.33a12.29,12.29,0,0,1-.46,3.7,4.24,4.24,0,0,1-2.26,2.47,10.85,10.85,0,0,1-3.79.65v1.71h20.79V51.15a11.26,11.26,0,0,1-3.83-.69,4.22,4.22,0,0,1-2.32-2.53"/><path class="cls-1" d="M188.85,14.14c-11.09,0-18,7.36-18,20.2,0,18.82,14.65,20.07,17.8,20.07,6.27,0,18.13-3.91,18.13-20.42,0-12.86-7.58-19.85-17.88-19.85m-.14,37.93c-8.34,0-9.63-4.17-9.63-17.52,0-10.32.65-18.07,9.63-18.07,9.7,0,9.75,8,9.75,17.42,0,13.51-2.31,18.17-9.75,18.17"/><path class="cls-1" d="M235.75,14.72c-6.63,0-8.7,3.92-10.53,7.91a4.33,4.33,0,0,0-.52,0c-.06,0-.95-5.81-1.29-7.53l-12.85,0v2h6.95s0,5.9,0,8V43.13a12.89,12.89,0,0,1-.84,5.49c-.71,1.29-2.31,1.93-4.95,1.93h-1.12v2.31h21.52V50.55h-1.15c-2.83,0-4.05-.61-4.81-1.83s-1-2.91-1-5.59V29.58c0-4.57,3.44-9.77,7.57-9.77,4.31,0,4.2,6.64,9.09,4,2.66-1.45,2.21-9.06-6-9.06"/><path class="cls-1" d="M321.48,49c-2.3,0-3-1.28-3.2-3.41l-.14-4.84V24.91c0-3.41-.55-5.71-2.56-7.72s-5.82-3.05-11.37-3.05c-5.33,0-9.28,1-11.8,2.92S289,20.66,289,23.13a3,3,0,0,0,.95,2.5,3.34,3.34,0,0,0,2.35.84c2.13,0,3.34-1.08,3.78-3.9a7.33,7.33,0,0,1,1.81-4.36c1.1-1.15,2.82-1.73,5.14-1.73,2.69,0,4.61.73,5.67,2.18a9.24,9.24,0,0,1,1.51,5.52v6.33c-6.9.63-23.18,1.93-22.45,14.33A10,10,0,0,0,297.84,54c6.11,0,10-3.48,12.6-6.27a7.15,7.15,0,0,0,7.33,5.79c5,0,8-2.45,8.35-8.59h-1.29c-.33,2.67-2,4.1-3.35,4.1m-11.27-4a.3.3,0,0,1-.13.3l-.16.15c-3.69,3.35-6.51,4.54-8.56,4.54-5.28,0-6.07-4.39-6.07-6.59,0-7,9.64-10.55,14.92-10.55Z"/><path class="cls-1" d="M365.61,48.72a10,10,0,0,1-1.35-5.61l.1-17.12a13.26,13.26,0,0,0-1.26-6.33,9.2,9.2,0,0,0-3.9-3.82,12.51,12.51,0,0,0-5.68-1.25c-7.56,0-10.6,4.61-12.25,7.33l-.69,0L339.23,15l-11.7,0v2c2.2.09,5.86.13,5.86.13v26a15.81,15.81,0,0,1-.46,4.43,3.5,3.5,0,0,1-2.16,2.42,10,10,0,0,1-3.24.54v2.38h18.6v-2.4c-1.87-.15-3.14-.66-3.8-1.61s-1.06-2.78-1.06-5.35v-10c0-4.17,0-8.21,1.4-10.7a8.4,8.4,0,0,1,7.5-4.22c2.83,0,4.32.91,5.26,2.71.76,1.46,1.26,5.81,1.26,8.81l-.1,12.36c0,2.07.26,3.59.1,4.57a3.82,3.82,0,0,1-1.63,2.61,6.24,6.24,0,0,1-3,.78v2.42H370V50.48c-2.27-.15-3.75-.7-4.4-1.76"/><path class="cls-1" d="M281.38,12.62c-1.11.35-1.84,1.34-2.23,3s-.88,2.42-1.65,2.67a4.4,4.4,0,0,1-2.69-.19c-1.92-1.79-5.62-4-12.13-4-10.48,0-15.1,7.47-15.1,14.28,0,8,3.07,11.83,9.81,13.25.41.08.41.54.05.62-5.74,1.16-10.84,2.84-10.84,8.31a6.2,6.2,0,0,0,4.31,6.08c2.67,1.09,6.42,1.65,11.14,1.74a87.77,87.77,0,0,1,8.94.42,10.1,10.1,0,0,1,4.89,1.69,5,5,0,0,1,1.89,4.22c0,2.53-1.35,4.56-4,6.07-2.51,1.4-5.94,2.13-10.21,2.13-3.65,0-6.64-.4-9.35-2.08a5,5,0,0,1-2-5.43c.38-1.77-.26-3.64-2.31-4a3.42,3.42,0,0,0-3.22,1.45,6.15,6.15,0,0,0-.84,3.45c0,4.5,3.48,6.6,6.13,7.38a32,32,0,0,0,10.45,1.53c4.94,0,8.94-.76,11.81-2.21a13,13,0,0,0,5.93-5.25,12.8,12.8,0,0,0,1.65-6.15,11.15,11.15,0,0,0-1.75-6.56C276.31,49.94,271,50.6,259,50c-5.75,0-6.86-1-6.86-2.81,0-2.59,2.13-3.61,10.45-4.89s15.83-4.28,15.83-14.28A17,17,0,0,0,277,21a8.9,8.9,0,0,0,4.71-.1,5.31,5.31,0,0,0,3.35-2.5,4.18,4.18,0,0,0,.42-3.34c-.7-2.24-2-3-4.08-2.41m-18.5,27.54c-4.89,0-7.69-1.78-7.69-11.74,0-7,2.45-12.25,7.69-12.25,6.1,0,7.89,4.76,7.89,12.1,0,10.51-3.31,11.89-7.89,11.89"/></g></g></svg>